<svg width="116" height="32" viewBox="0 0 116 32" fill="none" xmlns="http://www.w3.org/2000/svg">
<path d="M25.6611 4.75019C27.2246 4.22902 28.7121 5.7165 28.191 7.28001L21.9939 25.8711C21.5238 27.2816 19.7336 27.7042 18.6823 26.6529L14.6066 22.5772C15.7782 21.4056 15.7782 19.5061 14.6066 18.3345C13.435 17.163 11.5356 17.163 10.364 18.3345L6.28826 14.2588C5.23696 13.2075 5.65955 11.4174 7.07002 10.9472L25.6611 4.75019Z" fill="#E4C779"/>
<path d="M44.2 23.14C41.3 23.14 39.06 21.62 39.02 18.98H42.02C42.1 20.1 42.84 20.84 44.14 20.84C45.46 20.84 46.24 20.14 46.24 19.14C46.24 16.12 39.04 17.94 39.06 12.88C39.06 10.36 41.1 8.84 43.98 8.84C46.84 8.84 48.8 10.3 48.98 12.82H45.9C45.84 11.9 45.1 11.18 43.9 11.16C42.8 11.12 41.98 11.66 41.98 12.8C41.98 15.6 49.14 14.04 49.14 18.96C49.14 21.16 47.38 23.14 44.2 23.14ZM51.5675 8.2H54.3675V16.62L58.0875 11.92H61.7275L56.8475 17.48L61.7675 23H58.1275L54.3675 18.28V23H51.5675V8.2ZM70.8672 11.92H73.8472L66.9872 28.24H64.0072L66.4072 22.72L61.9672 11.92H65.1072L67.9672 19.66L70.8672 11.92ZM75.7966 9.18H78.6166V11.92H81.0966V14.22H78.6166V19.58C78.6166 20.32 78.9166 20.64 79.7966 20.64H81.0966V23H79.3366C77.2166 23 75.7966 22.1 75.7966 19.56V14.22H74.4766V11.92H75.7966V9.18ZM83.1105 11.92H85.9105V23H83.1105V11.92ZM84.5305 10.6C83.5305 10.6 82.8105 9.88 82.8105 8.96C82.8105 8.04 83.5305 7.32 84.5305 7.32C85.5105 7.32 86.2505 8.04 86.2505 8.96C86.2505 9.88 85.5105 10.6 84.5305 10.6ZM94.7969 23L92.5169 19.56L90.4969 23H87.4969L91.1169 17.44L87.4569 11.92H90.6169L92.8769 15.34L94.9169 11.92H97.9169L94.2769 17.44L97.9569 23H94.7969Z" fill="#222222"/>
</svg>
