<svg width="18" height="18" viewBox="0 0 18 18" fill="none" xmlns="http://www.w3.org/2000/svg">
<path d="M16.3953 6.78281C16.1008 6.475 15.7961 6.15781 15.6812 5.87891C15.575 5.62344 15.5687 5.2 15.5625 4.78984C15.5508 4.02734 15.5383 3.16328 14.9375 2.5625C14.3367 1.96172 13.4727 1.94922 12.7102 1.9375C12.3 1.93125 11.8766 1.925 11.6211 1.81875C11.343 1.70391 11.025 1.39922 10.7172 1.10469C10.1781 0.586719 9.56563 0 8.75 0C7.93437 0 7.32266 0.586719 6.78281 1.10469C6.475 1.39922 6.15781 1.70391 5.87891 1.81875C5.625 1.925 5.2 1.93125 4.78984 1.9375C4.02734 1.94922 3.16328 1.96172 2.5625 2.5625C1.96172 3.16328 1.95312 4.02734 1.9375 4.78984C1.93125 5.2 1.925 5.62344 1.81875 5.87891C1.70391 6.15703 1.39922 6.475 1.10469 6.78281C0.586719 7.32266 0 7.93437 0 8.75C0 9.56563 0.586719 10.1773 1.10469 10.7172C1.39922 11.025 1.70391 11.3422 1.81875 11.6211C1.925 11.8766 1.93125 12.3 1.9375 12.7102C1.94922 13.4727 1.96172 14.3367 2.5625 14.9375C3.16328 15.5383 4.02734 15.5508 4.78984 15.5625C5.2 15.5687 5.62344 15.575 5.87891 15.6812C6.15703 15.7961 6.475 16.1008 6.78281 16.3953C7.32188 16.9133 7.93437 17.5 8.75 17.5C9.56563 17.5 10.1773 16.9133 10.7172 16.3953C11.025 16.1008 11.3422 15.7961 11.6211 15.6812C11.8766 15.575 12.3 15.5687 12.7102 15.5625C13.4727 15.5508 14.3367 15.5383 14.9375 14.9375C15.5383 14.3367 15.5508 13.4727 15.5625 12.7102C15.5687 12.3 15.575 11.8766 15.6812 11.6211C15.7961 11.343 16.1008 11.025 16.3953 10.7172C16.9133 10.1773 17.5 9.56563 17.5 8.75C17.5 7.93437 16.9133 7.32266 16.3953 6.78281ZM15.493 9.85234C15.1187 10.243 14.7312 10.6469 14.5258 11.143C14.3289 11.6195 14.3203 12.1641 14.3125 12.6914C14.3047 13.2383 14.2961 13.8109 14.0531 14.0531C13.8102 14.2953 13.2414 14.3047 12.6914 14.3125C12.1641 14.3203 11.6195 14.3289 11.143 14.5258C10.6469 14.7312 10.243 15.1187 9.85234 15.493C9.46172 15.8672 9.0625 16.25 8.75 16.25C8.4375 16.25 8.03516 15.8656 7.64766 15.493C7.26016 15.1203 6.85313 14.7312 6.35703 14.5258C5.88047 14.3289 5.33594 14.3203 4.80859 14.3125C4.26172 14.3047 3.68906 14.2961 3.44687 14.0531C3.20469 13.8102 3.19531 13.2414 3.1875 12.6914C3.17969 12.1641 3.17109 11.6195 2.97422 11.143C2.76875 10.6469 2.38125 10.243 2.00703 9.85234C1.63281 9.46172 1.25 9.0625 1.25 8.75C1.25 8.4375 1.63437 8.03594 2.00703 7.64766C2.37969 7.25938 2.76875 6.85313 2.97422 6.35703C3.17109 5.88047 3.17969 5.33594 3.1875 4.80859C3.19531 4.26172 3.20391 3.68906 3.44687 3.44687C3.68984 3.20469 4.25859 3.19531 4.80859 3.1875C5.33594 3.17969 5.88047 3.17109 6.35703 2.97422C6.85313 2.76875 7.25703 2.38125 7.64766 2.00703C8.03828 1.63281 8.4375 1.25 8.75 1.25C9.0625 1.25 9.46484 1.63437 9.85234 2.00703C10.2398 2.37969 10.6469 2.76875 11.143 2.97422C11.6195 3.17109 12.1641 3.17969 12.6914 3.1875C13.2383 3.19531 13.8109 3.20391 14.0531 3.44687C14.2953 3.68984 14.3047 4.25859 14.3125 4.80859C14.3203 5.33594 14.3289 5.88047 14.5258 6.35703C14.7312 6.85313 15.1187 7.25703 15.493 7.64766C15.8672 8.03828 16.25 8.4375 16.25 8.75C16.25 9.0625 15.8656 9.46406 15.493 9.85234ZM8.125 6.25C8.125 5.87916 8.01503 5.51665 7.80901 5.20831C7.60298 4.89996 7.31014 4.65964 6.96753 4.51773C6.62492 4.37581 6.24792 4.33868 5.88421 4.41103C5.52049 4.48337 5.1864 4.66195 4.92417 4.92417C4.66195 5.1864 4.48337 5.52049 4.41103 5.88421C4.33868 6.24792 4.37581 6.62492 4.51773 6.96753C4.65964 7.31014 4.89996 7.60298 5.20831 7.80901C5.51665 8.01503 5.87916 8.125 6.25 8.125C6.74728 8.125 7.22419 7.92746 7.57583 7.57583C7.92746 7.22419 8.125 6.74728 8.125 6.25ZM5.625 6.25C5.625 6.12639 5.66166 6.00555 5.73033 5.90277C5.79901 5.79999 5.89662 5.71988 6.01082 5.67257C6.12503 5.62527 6.25069 5.61289 6.37193 5.63701C6.49317 5.66112 6.60453 5.72065 6.69194 5.80806C6.77935 5.89547 6.83888 6.00683 6.86299 6.12807C6.88711 6.24931 6.87473 6.37497 6.82743 6.48918C6.78012 6.60338 6.70001 6.70099 6.59723 6.76967C6.49445 6.83834 6.37361 6.875 6.25 6.875C6.08424 6.875 5.92527 6.80915 5.80806 6.69194C5.69085 6.57473 5.625 6.41576 5.625 6.25ZM11.25 9.375C10.8792 9.375 10.5166 9.48497 10.2083 9.69099C9.89996 9.89702 9.65964 10.1899 9.51773 10.5325C9.37581 10.8751 9.33868 11.2521 9.41103 11.6158C9.48337 11.9795 9.66195 12.3136 9.92417 12.5758C10.1864 12.838 10.5205 13.0166 10.8842 13.089C11.2479 13.1613 11.6249 13.1242 11.9675 12.9823C12.3101 12.8404 12.603 12.6 12.809 12.2917C13.015 11.9834 13.125 11.6208 13.125 11.25C13.125 10.7527 12.9275 10.2758 12.5758 9.92417C12.2242 9.57254 11.7473 9.375 11.25 9.375ZM11.25 11.875C11.1264 11.875 11.0055 11.8383 10.9028 11.7697C10.8 11.701 10.7199 11.6034 10.6726 11.4892C10.6253 11.375 10.6129 11.2493 10.637 11.1281C10.6611 11.0068 10.7206 10.8955 10.8081 10.8081C10.8955 10.7206 11.0068 10.6611 11.1281 10.637C11.2493 10.6129 11.375 10.6253 11.4892 10.6726C11.6034 10.7199 11.701 10.8 11.7697 10.9028C11.8383 11.0055 11.875 11.1264 11.875 11.25C11.875 11.4158 11.8092 11.5747 11.6919 11.6919C11.5747 11.8092 11.4158 11.875 11.25 11.875ZM12.3172 6.06719L6.06719 12.3172C6.00912 12.3753 5.94018 12.4213 5.86431 12.4527C5.78844 12.4842 5.70712 12.5003 5.625 12.5003C5.54288 12.5003 5.46156 12.4842 5.38569 12.4527C5.30982 12.4213 5.24088 12.3753 5.18281 12.3172C5.12474 12.2591 5.07868 12.1902 5.04725 12.1143C5.01583 12.0384 4.99965 11.9571 4.99965 11.875C4.99965 11.7929 5.01583 11.7116 5.04725 11.6357C5.07868 11.5598 5.12474 11.4909 5.18281 11.4328L11.4328 5.18281C11.4909 5.12474 11.5598 5.07868 11.6357 5.04725C11.7116 5.01583 11.7929 4.99965 11.875 4.99965C11.9571 4.99965 12.0384 5.01583 12.1143 5.04725C12.1902 5.07868 12.2591 5.12474 12.3172 5.18281C12.3753 5.24088 12.4213 5.30982 12.4527 5.38569C12.4842 5.46156 12.5003 5.54288 12.5003 5.625C12.5003 5.70712 12.4842 5.78844 12.4527 5.86431C12.4213 5.94018 12.3753 6.00912 12.3172 6.06719Z" fill="#84827E"/>
</svg>
