<svg width="18" height="13" viewBox="0 0 18 13" fill="none" xmlns="http://www.w3.org/2000/svg">
<path d="M16.25 0H1.25C0.918479 0 0.600537 0.131696 0.366116 0.366116C0.131696 0.600537 0 0.918479 0 1.25V11.25C0 11.5815 0.131696 11.8995 0.366116 12.1339C0.600537 12.3683 0.918479 12.5 1.25 12.5H16.25C16.5815 12.5 16.8995 12.3683 17.1339 12.1339C17.3683 11.8995 17.5 11.5815 17.5 11.25V1.25C17.5 0.918479 17.3683 0.600537 17.1339 0.366116C16.8995 0.131696 16.5815 0 16.25 0ZM16.25 1.25V3.125H1.25V1.25H16.25ZM16.25 11.25H1.25V4.375H16.25V11.25ZM15 9.375C15 9.54076 14.9342 9.69973 14.8169 9.81694C14.6997 9.93415 14.5408 10 14.375 10H11.875C11.7092 10 11.5503 9.93415 11.4331 9.81694C11.3158 9.69973 11.25 9.54076 11.25 9.375C11.25 9.20924 11.3158 9.05027 11.4331 8.93306C11.5503 8.81585 11.7092 8.75 11.875 8.75H14.375C14.5408 8.75 14.6997 8.81585 14.8169 8.93306C14.9342 9.05027 15 9.20924 15 9.375ZM10 9.375C10 9.54076 9.93415 9.69973 9.81694 9.81694C9.69973 9.93415 9.54076 10 9.375 10H8.125C7.95924 10 7.80027 9.93415 7.68306 9.81694C7.56585 9.69973 7.5 9.54076 7.5 9.375C7.5 9.20924 7.56585 9.05027 7.68306 8.93306C7.80027 8.81585 7.95924 8.75 8.125 8.75H9.375C9.54076 8.75 9.69973 8.81585 9.81694 8.93306C9.93415 9.05027 10 9.20924 10 9.375Z" fill="#84827E"/>
</svg>
