<svg width="18" height="18" viewBox="0 0 18 18" fill="none" xmlns="http://www.w3.org/2000/svg">
<path d="M17.1547 8.81562L11.25 5.86406V2.5C11.25 1.83696 10.9866 1.20107 10.5178 0.732233C10.0489 0.263392 9.41304 0 8.75 0C8.08696 0 7.45107 0.263392 6.98223 0.732233C6.51339 1.20107 6.25 1.83696 6.25 2.5V5.86406L0.345313 8.81562C0.241476 8.86759 0.154166 8.94744 0.0931731 9.04625C0.0321806 9.14505 -8.2969e-05 9.25889 1.60236e-07 9.375V11.875C5.13638e-05 11.9674 0.0206109 12.0587 0.060197 12.1423C0.099783 12.2258 0.15741 12.2995 0.228924 12.3581C0.300438 12.4167 0.384059 12.4587 0.473759 12.4811C0.56346 12.5035 0.657006 12.5056 0.747656 12.4875L6.25 11.3875V12.8664L5.18281 13.9328C5.12479 13.9909 5.07878 14.0598 5.04741 14.1357C5.01605 14.2116 4.99994 14.2929 5 14.375V16.875C4.99982 16.9774 5.02483 17.0783 5.07281 17.1688C5.12079 17.2593 5.19028 17.3367 5.27517 17.394C5.36005 17.4513 5.45773 17.4869 5.5596 17.4976C5.66147 17.5084 5.76442 17.4939 5.85938 17.4555L8.75 16.2984L11.6406 17.4555C11.7356 17.4939 11.8385 17.5084 11.9404 17.4976C12.0423 17.4869 12.1399 17.4513 12.2248 17.394C12.3097 17.3367 12.3792 17.2593 12.4272 17.1688C12.4752 17.0783 12.5002 16.9774 12.5 16.875V14.375C12.5001 14.2929 12.484 14.2116 12.4526 14.1357C12.4212 14.0598 12.3752 13.9909 12.3172 13.9328L11.25 12.8664V11.3875L16.7523 12.4875C16.843 12.5056 16.9365 12.5035 17.0262 12.4811C17.1159 12.4587 17.1996 12.4167 17.2711 12.3581C17.3426 12.2995 17.4002 12.2258 17.4398 12.1423C17.4794 12.0587 17.4999 11.9674 17.5 11.875V9.375C17.5001 9.25889 17.4678 9.14505 17.4068 9.04625C17.3458 8.94744 17.2585 8.86759 17.1547 8.81562ZM16.25 11.1125L10.7477 10.0125C10.657 9.99436 10.5635 9.99655 10.4738 10.0189C10.3841 10.0413 10.3004 10.0833 10.2289 10.1419C10.1574 10.2005 10.0998 10.2742 10.0602 10.3577C10.0206 10.4413 10.0001 10.5326 10 10.625V13.125C9.99994 13.2071 10.016 13.2884 10.0474 13.3643C10.0788 13.4402 10.1248 13.5091 10.1828 13.5672L11.25 14.6336V15.9516L8.98438 15.0445C8.83542 14.985 8.66927 14.985 8.52031 15.0445L6.25 15.9516V14.6336L7.31719 13.5672C7.37521 13.5091 7.42122 13.4402 7.45259 13.3643C7.48395 13.2884 7.50006 13.2071 7.5 13.125V10.625C7.49995 10.5326 7.47939 10.4413 7.4398 10.3577C7.40022 10.2742 7.34259 10.2005 7.27108 10.1419C7.19956 10.0833 7.11594 10.0413 7.02624 10.0189C6.93654 9.99655 6.84299 9.99436 6.75234 10.0125L1.25 11.1125V9.76094L7.15469 6.80938C7.25852 6.75742 7.34583 6.67756 7.40683 6.57875C7.46782 6.47995 7.50008 6.36611 7.5 6.25V2.5C7.5 2.16848 7.6317 1.85054 7.86612 1.61612C8.10054 1.3817 8.41848 1.25 8.75 1.25C9.08152 1.25 9.39946 1.3817 9.63388 1.61612C9.8683 1.85054 10 2.16848 10 2.5V6.25C9.99992 6.36611 10.0322 6.47995 10.0932 6.57875C10.1542 6.67756 10.2415 6.75742 10.3453 6.80938L16.25 9.76094V11.1125Z" fill="#84827E"/>
</svg>
